<?xml version="1.0" encoding="utf-8"?>
<!-- Svg Vector Icons : http://www.onlinewebfonts.com/icon -->
<!DOCTYPE svg PUBLIC "-//W3C//DTD SVG 1.1//EN" "http://www.w3.org/Graphics/SVG/1.1/DTD/svg11.dtd">
<svg version="1.1" xmlns="http://www.w3.org/2000/svg" xmlns:xlink="http://www.w3.org/1999/xlink" x="0px" y="0px" viewBox="0 0 1000 1000" enable-background="new 0 0 1000 1000" xml:space="preserve" width="16" heigth="16">
<metadata> Svg Vector Icons : http://www.onlinewebfonts.com/icon </metadata>
<g><path d="M570,80c116.7,0,215.8,40.8,297.5,122.5C949.2,284.2,990,383.3,990,500s-40.8,215.8-122.5,297.5C785.8,879.2,686.7,920,570,920c-96.3,0-181.6-29.2-255.9-87.5l65.6-65.6C438,806.3,501.4,826,570,826c90.4,0,167.3-31.7,230.8-95.2s95.2-140.4,95.2-230.8c0-90.4-31.7-167.3-95.2-230.8c-63.4-63.4-140.4-95.2-230.8-95.2c-90.4,0-167.3,31.7-230.8,95.2C275.8,332.7,244,409.6,244,500h140L195.9,686L10,500h140c0-116.7,40.8-215.8,122.5-297.5C354.2,120.9,453.4,80,570,80L570,80z M664.1,500c0,24.8-9.5,46.7-28.4,65.6C616.7,584.6,594.8,594,570,594c-24.8,0-46.7-9.5-65.6-28.4C485.5,546.7,476,524.8,476,500c0-24.8,9.5-46.7,28.4-65.6c18.9-18.9,40.8-28.4,65.6-28.4c24.8,0,46.7,9.5,65.6,28.4C654.6,453.3,664.1,475.2,664.1,500z"/></g>
</svg>
